<?xml version="1.0" encoding="UTF-8" standalone="no"?>
<!DOCTYPE svg PUBLIC "-//W3C//DTD SVG 1.1//EN" "http://www.w3.org/Graphics/SVG/1.1/DTD/svg11.dtd">
<svg version="1.1" xmlns="http://www.w3.org/2000/svg" xmlns:xlink="http://www.w3.org/1999/xlink" preserveAspectRatio="xMidYMid meet" viewBox="0 0 640 640" width="640" height="640"><defs><path d="M222.89 499.68L223.29 493.62L223.84 487.64L224.55 481.73L225.4 475.91L226.4 470.17L227.54 464.53L228.82 458.98L230.23 453.54L231.77 448.2L233.45 442.97L235.25 437.86L237.17 432.88L239.22 428.02L241.38 423.29L243.65 418.69L246.03 414.24L248.52 409.93L251.12 405.78L253.81 401.78L256.61 397.94L259.49 394.26L262.47 390.76L265.54 387.43L268.69 384.27L271.93 381.31L275.24 378.53L278.63 375.95L282.09 373.57L285.52 371.45L284.76 370.73L283.2 369.14L281.71 367.48L280.26 365.76L278.88 363.97L277.55 362.13L276.29 360.23L275.09 358.27L273.95 356.25L272.88 354.19L271.88 352.07L270.95 349.91L270.09 347.69L269.31 345.44L268.6 343.14L267.96 340.8L267.41 338.43L266.93 336.01L266.54 333.57L266.23 331.09L266.01 328.58L265.88 326.04L265.83 323.48L265.88 320.91L266.01 318.37L266.23 315.86L266.54 313.38L266.93 310.94L267.41 308.52L267.96 306.15L268.6 303.81L269.31 301.51L270.09 299.26L270.95 297.04L271.88 294.88L272.88 292.76L273.95 290.7L275.09 288.68L276.29 286.72L277.55 284.82L278.88 282.98L280.26 281.19L281.71 279.47L283.2 277.81L284.76 276.22L286.36 274.7L288.02 273.25L289.72 271.87L291.48 270.56L293.27 269.33L295.12 268.18L297 267.11L298.92 266.12L300.89 265.22L302.89 264.4L304.92 263.68L306.99 263.04L309.09 262.49L311.22 262.04L313.38 261.69L315.56 261.44L317.77 261.28L320 261.23L322.23 261.28L324.44 261.44L326.62 261.69L328.78 262.04L330.91 262.49L333.01 263.04L335.08 263.68L337.11 264.4L339.11 265.22L341.08 266.12L343 267.11L344.88 268.18L346.73 269.33L348.52 270.56L350.28 271.87L351.98 273.25L353.64 274.7L355.24 276.22L356.8 277.81L358.29 279.47L359.74 281.19L361.12 282.98L362.45 284.82L363.71 286.72L364.91 288.68L366.05 290.7L367.12 292.76L368.12 294.88L369.05 297.04L369.91 299.26L370.69 301.51L371.4 303.81L372.04 306.15L372.59 308.52L373.07 310.94L373.46 313.38L373.77 315.86L373.99 318.37L374.12 320.91L374.17 323.48L374.12 326.04L373.99 328.58L373.77 331.09L373.46 333.57L373.07 336.01L372.59 338.43L372.04 340.8L371.4 343.14L370.69 345.44L369.91 347.69L369.05 349.91L368.12 352.07L367.12 354.19L366.05 356.25L364.91 358.27L363.71 360.23L362.45 362.13L361.12 363.97L359.74 365.76L358.29 367.48L356.8 369.14L355.24 370.73L354.48 371.45L357.91 373.57L361.37 375.95L364.76 378.53L368.07 381.31L371.31 384.27L374.46 387.43L377.53 390.76L380.51 394.26L383.39 397.94L386.19 401.78L388.88 405.78L391.48 409.93L393.97 414.24L396.35 418.69L398.62 423.29L400.78 428.02L402.83 432.88L404.75 437.86L406.55 442.97L408.23 448.2L409.77 453.54L411.18 458.98L412.46 464.53L413.6 470.17L414.6 475.91L415.45 481.73L416.16 487.64L416.71 493.62L417.11 499.68L417.35 505.8L417.43 511.99L222.57 511.99L222.65 505.8L222.89 499.68Z" id="b2LXqfgzFS"></path><path d="M459.61 247.97L461.51 248.2L463.39 248.52L465.24 248.92L467.07 249.42L468.87 249.99L470.64 250.65L472.38 251.39L474.09 252.2L475.76 253.1L477.4 254.06L479 255.1L480.57 256.21L482.09 257.39L483.58 258.64L485.02 259.95L486.42 261.33L487.77 262.77L489.07 264.26L490.33 265.82L491.53 267.43L492.69 269.1L493.79 270.82L494.83 272.59L495.82 274.41L496.75 276.28L497.62 278.19L498.43 280.15L499.18 282.15L499.86 284.19L500.48 286.26L501.03 288.38L501.52 290.52L501.93 292.71L502.27 294.92L502.54 297.16L502.73 299.43L502.85 301.72L502.89 304.04L502.85 306.36L502.73 308.65L502.54 310.92L502.27 313.16L501.93 315.37L501.52 317.55L501.03 319.7L500.48 321.81L499.86 323.89L499.18 325.93L498.43 327.93L497.62 329.88L496.75 331.8L495.82 333.66L494.83 335.48L493.79 337.25L492.69 338.97L491.53 340.64L490.33 342.25L489.07 343.81L487.77 345.31L486.42 346.75L485.75 347.4L488.74 349.31L491.75 351.46L494.7 353.8L497.58 356.31L500.4 358.99L503.14 361.84L505.81 364.85L508.4 368.01L510.92 371.34L513.35 374.81L515.69 378.42L517.95 382.18L520.12 386.07L522.19 390.1L524.17 394.25L526.05 398.52L527.83 402.92L529.5 407.42L531.07 412.04L532.53 416.76L533.87 421.59L535.1 426.51L536.21 431.52L537.21 436.62L538.07 441.81L538.82 447.07L539.43 452.41L539.91 457.82L540.26 463.29L540.47 468.83L540.54 474.42L370.95 474.42L371.02 468.83L371.23 463.29L371.57 457.82L372.06 452.41L372.67 447.07L373.41 441.81L374.28 436.62L375.27 431.52L376.38 426.51L377.61 421.59L378.96 416.76L380.42 412.04L381.98 407.42L383.66 402.92L385.44 398.52L387.32 394.25L389.29 390.1L391.37 386.07L393.54 382.18L395.79 378.42L398.14 374.81L400.57 371.34L403.08 368.01L405.68 364.85L408.35 361.84L411.09 358.99L413.9 356.31L416.79 353.8L419.74 351.46L422.75 349.31L425.73 347.4L425.07 346.75L423.72 345.31L422.41 343.81L421.16 342.25L419.95 340.64L418.8 338.97L417.7 337.25L416.66 335.48L415.67 333.66L414.74 331.8L413.87 329.88L413.06 327.93L412.31 325.93L411.62 323.89L411.01 321.81L410.45 319.7L409.97 317.55L409.56 315.37L409.22 313.16L408.95 310.92L408.76 308.65L408.64 306.36L408.6 304.04L408.64 301.72L408.76 299.43L408.95 297.16L409.22 294.92L409.56 292.71L409.97 290.52L410.45 288.38L411.01 286.26L411.62 284.19L412.31 282.15L413.06 280.15L413.87 278.19L414.74 276.28L415.67 274.41L416.66 272.59L417.7 270.82L418.8 269.1L419.95 267.43L421.16 265.82L422.41 264.26L423.72 262.77L425.07 261.33L426.47 259.95L427.91 258.64L429.39 257.39L430.92 256.21L432.48 255.1L434.09 254.06L435.73 253.1L437.4 252.2L439.11 251.39L440.85 250.65L442.62 249.99L444.42 249.42L446.25 248.92L448.1 248.52L449.98 248.2L451.88 247.97L453.8 247.83L455.74 247.78L457.69 247.83L459.61 247.97Z" id="addOg3GPh"></path><path d="M116.95 414.71L117.28 409.8L117.72 404.95L118.3 400.16L118.99 395.43L119.8 390.78L120.72 386.21L121.76 381.71L122.91 377.29L124.16 372.97L125.52 368.73L126.98 364.59L128.54 360.54L130.2 356.6L131.95 352.77L133.79 349.04L135.73 345.43L137.75 341.94L139.85 338.57L142.04 335.32L144.31 332.21L146.65 329.23L149.07 326.39L151.56 323.69L154.11 321.13L156.74 318.73L159.43 316.48L162.18 314.38L164.98 312.45L167.77 310.74L167.15 310.15L165.89 308.86L164.67 307.52L163.5 306.12L162.38 304.67L161.3 303.18L160.28 301.63L159.3 300.05L158.38 298.41L157.51 296.74L156.7 295.02L155.95 293.26L155.25 291.47L154.61 289.64L154.04 287.78L153.52 285.88L153.07 283.96L152.69 282L152.37 280.02L152.12 278.01L151.94 275.97L151.83 273.91L151.79 271.83L151.83 269.75L151.94 267.7L152.12 265.66L152.37 263.65L152.69 261.67L153.07 259.71L153.52 257.78L154.04 255.89L154.61 254.02L155.25 252.19L155.95 250.4L156.7 248.65L157.51 246.93L158.38 245.25L159.3 243.62L160.28 242.03L161.3 240.49L162.38 238.99L163.5 237.55L164.67 236.15L165.89 234.81L167.15 233.52L168.45 232.28L169.79 231.1L171.18 229.99L172.6 228.93L174.06 227.93L175.55 227L177.08 226.13L178.64 225.33L180.24 224.6L181.86 223.94L183.51 223.34L185.19 222.83L186.89 222.39L188.62 222.02L190.37 221.73L192.14 221.53L193.93 221.4L195.74 221.36L197.55 221.4L199.35 221.53L201.12 221.73L202.87 222.02L204.6 222.39L206.3 222.83L207.98 223.34L209.63 223.94L211.25 224.6L212.84 225.33L214.4 226.13L215.93 227L217.43 227.93L218.89 228.93L220.31 229.99L221.69 231.1L223.04 232.28L224.34 233.52L225.6 234.81L226.81 236.15L227.98 237.55L229.11 238.99L230.18 240.49L231.21 242.03L232.18 243.62L233.1 245.25L233.97 246.93L234.78 248.65L235.54 250.4L236.24 252.19L236.87 254.02L237.45 255.89L237.96 257.78L238.41 259.71L238.8 261.67L239.12 263.65L239.37 265.66L239.55 267.7L239.66 269.75L239.69 271.83L239.66 273.91L239.55 275.97L239.37 278.01L239.12 280.02L238.8 282L238.41 283.96L237.96 285.88L237.45 287.78L236.87 289.64L236.24 291.47L235.54 293.26L234.78 295.02L233.97 296.74L233.1 298.41L232.18 300.05L231.21 301.63L230.18 303.18L229.11 304.67L227.98 306.12L226.81 307.52L225.6 308.86L224.34 310.15L223.72 310.74L226.5 312.45L229.31 314.38L232.06 316.48L234.75 318.73L237.37 321.13L239.93 323.69L242.42 326.39L244.84 329.23L247.18 332.21L249.45 335.32L251.63 338.57L253.74 341.94L255.76 345.43L257.69 349.04L259.54 352.77L261.29 356.6L262.95 360.54L264.51 364.59L265.97 368.73L267.33 372.97L268.58 377.29L269.73 381.71L270.76 386.21L271.69 390.78L272.5 395.43L273.19 400.16L273.76 404.95L274.21 409.8L274.54 414.71L274.73 419.68L274.8 424.69L116.69 424.69L116.76 419.68L116.95 414.71Z" id="a2jmcOA7yx"></path><path d="M555.61 144.89L556.46 144.97L557.3 145.09L558.14 145.25L558.95 145.43L559.76 145.65L560.55 145.89L561.33 146.17L562.1 146.48L562.85 146.81L563.58 147.17L564.3 147.56L565 147.98L565.69 148.42L566.35 148.89L567 149.38L567.62 149.9L568.23 150.44L568.81 151L569.38 151.59L569.92 152.19L570.43 152.82L570.92 153.46L571.39 154.13L571.84 154.81L572.25 155.51L572.64 156.23L573.01 156.97L573.34 157.72L573.65 158.48L573.92 159.26L574.17 160.06L574.39 160.86L574.57 161.68L574.72 162.51L574.84 163.35L574.93 164.21L574.98 165.07L575 165.94L575 556.26L574.98 557.13L574.93 557.99L574.84 558.85L574.72 559.69L574.57 560.52L574.39 561.34L574.17 562.14L573.92 562.94L573.65 563.72L573.34 564.48L573.01 565.23L572.64 565.97L572.25 566.69L571.84 567.39L571.39 568.07L570.92 568.74L570.43 569.38L569.92 570.01L569.38 570.61L568.81 571.2L568.23 571.76L567.62 572.3L567 572.82L566.35 573.31L565.69 573.78L565 574.22L564.3 574.64L563.58 575.03L562.85 575.39L562.1 575.72L561.33 576.03L560.55 576.31L559.76 576.55L558.95 576.77L558.14 576.95L557.3 577.11L556.46 577.23L555.61 577.31L554.75 577.37L553.88 577.38L110.24 577.38L109.37 577.37L108.51 577.31L107.66 577.23L106.82 577.11L105.99 576.95L105.17 576.77L104.36 576.55L103.57 576.31L102.79 576.03L102.02 575.72L101.27 575.39L100.54 575.03L99.82 574.64L99.12 574.22L98.43 573.78L97.77 573.31L97.12 572.82L96.5 572.3L95.89 571.76L95.31 571.2L94.75 570.61L94.21 570.01L93.69 569.38L93.2 568.74L92.73 568.07L92.29 567.39L91.87 566.69L91.48 565.97L91.12 565.23L90.78 564.48L90.48 563.72L90.2 562.94L89.95 562.14L89.74 561.34L89.55 560.52L89.4 559.69L89.28 558.85L89.19 557.99L89.14 557.13L89.12 556.26L89.12 165.94L89.14 165.07L89.19 164.21L89.28 163.35L89.4 162.51L89.55 161.68L89.74 160.86L89.95 160.06L90.2 159.26L90.48 158.48L90.78 157.72L91.12 156.97L91.48 156.23L91.87 155.51L92.29 154.81L92.73 154.13L93.2 153.46L93.69 152.82L94.21 152.19L94.75 151.59L95.31 151L95.89 150.44L96.5 149.9L97.12 149.38L97.77 148.89L98.43 148.42L99.12 147.98L99.82 147.56L100.54 147.17L101.27 146.81L102.02 146.48L102.79 146.17L103.57 145.89L104.36 145.65L105.17 145.43L105.99 145.25L106.82 145.09L107.66 144.97L108.51 144.89L109.37 144.83L110.24 144.82L553.88 144.82L554.75 144.83L555.61 144.89ZM128.61 165.95L127.84 166L127.08 166.08L126.32 166.19L125.58 166.32L124.85 166.49L124.12 166.68L123.41 166.9L122.72 167.15L122.03 167.42L121.36 167.72L120.7 168.05L120.06 168.4L119.43 168.77L118.82 169.17L118.22 169.59L117.65 170.03L117.09 170.49L116.55 170.97L116.02 171.47L115.52 172L115.04 172.54L114.57 173.1L114.13 173.68L113.71 174.27L113.32 174.88L112.94 175.51L112.6 176.15L112.27 176.81L111.97 177.48L111.7 178.17L111.45 178.87L111.23 179.58L111.03 180.3L110.87 181.03L110.73 181.78L110.63 182.53L110.55 183.29L110.5 184.06L110.49 184.84L110.49 534.19L110.5 534.97L110.55 535.74L110.63 536.5L110.73 537.25L110.87 538L111.03 538.73L111.23 539.45L111.45 540.16L111.7 540.86L111.97 541.54L112.27 542.22L112.6 542.87L112.94 543.52L113.32 544.14L113.71 544.76L114.13 545.35L114.57 545.93L115.04 546.49L115.52 547.03L116.02 547.55L116.55 548.06L117.09 548.54L117.65 549L118.22 549.44L118.82 549.86L119.43 550.26L120.06 550.63L120.7 550.98L121.36 551.31L122.03 551.61L122.72 551.88L123.41 552.13L124.12 552.35L124.85 552.54L125.58 552.71L126.32 552.84L127.08 552.95L127.84 553.03L128.61 553.08L129.39 553.09L534.52 553.09L535.3 553.08L536.07 553.03L536.83 552.95L537.59 552.84L538.33 552.71L539.06 552.54L539.78 552.35L540.5 552.13L541.19 551.88L541.88 551.61L542.55 551.31L543.21 550.98L543.85 550.63L544.48 550.26L545.09 549.86L545.68 549.44L546.26 549L546.82 548.54L547.36 548.06L547.89 547.55L548.39 547.03L548.87 546.49L549.34 545.93L549.78 545.35L550.2 544.76L550.59 544.14L550.96 543.52L551.31 542.87L551.64 542.22L551.94 541.54L552.21 540.86L552.46 540.16L552.68 539.45L552.87 538.73L553.04 538L553.18 537.25L553.28 536.5L553.36 535.74L553.41 534.97L553.42 534.19L553.42 184.84L553.41 184.06L553.36 183.29L553.28 182.53L553.18 181.78L553.04 181.03L552.87 180.3L552.68 179.58L552.46 178.87L552.21 178.17L551.94 177.48L551.64 176.81L551.31 176.15L550.96 175.51L550.59 174.88L550.2 174.27L549.78 173.68L549.34 173.1L548.87 172.54L548.39 172L547.89 171.47L547.36 170.97L546.82 170.49L546.26 170.03L545.68 169.59L545.09 169.17L544.48 168.77L543.85 168.4L543.21 168.05L542.55 167.72L541.88 167.42L541.19 167.15L540.5 166.9L539.78 166.68L539.06 166.49L538.33 166.32L537.59 166.19L536.83 166.08L536.07 166L535.3 165.95L534.52 165.94L129.39 165.94L128.61 165.95Z" id="cRvSMqWQs"></path></defs><g><g><g><use xlink:href="#b2LXqfgzFS" opacity="1" fill="#000000" fill-opacity="1"></use></g><g><use xlink:href="#addOg3GPh" opacity="1" fill="#000000" fill-opacity="1"></use></g><g><use xlink:href="#a2jmcOA7yx" opacity="1" fill="#000000" fill-opacity="1"></use></g><g><use xlink:href="#cRvSMqWQs" opacity="1" fill="#000000" fill-opacity="1"></use></g></g></g></svg>