<?xml version="1.0" encoding="UTF-8" standalone="no"?>
<!DOCTYPE svg PUBLIC "-//W3C//DTD SVG 1.1//EN" "http://www.w3.org/Graphics/SVG/1.1/DTD/svg11.dtd">
<svg version="1.1" xmlns="http://www.w3.org/2000/svg" xmlns:xlink="http://www.w3.org/1999/xlink" preserveAspectRatio="xMidYMid meet" viewBox="0 0 640 640" width="640" height="640"><defs><path d="M552.49 132.4L553.34 132.49L554.18 132.61L555.01 132.76L555.83 132.95L556.64 133.16L557.43 133.41L558.21 133.68L558.98 133.99L559.73 134.33L560.46 134.69L561.18 135.08L561.88 135.5L562.57 135.94L563.23 136.41L563.88 136.9L564.5 137.42L565.11 137.96L565.69 138.52L566.25 139.1L566.79 139.71L567.31 140.33L567.8 140.98L568.27 141.64L568.71 142.33L569.13 143.03L569.52 143.75L569.88 144.48L570.22 145.23L570.53 146L570.8 146.78L571.05 147.57L571.26 148.38L571.45 149.2L571.6 150.03L571.72 150.87L571.81 151.72L571.86 152.58L571.88 153.45L571.88 543.78L571.86 544.65L571.81 545.51L571.72 546.36L571.6 547.2L571.45 548.03L571.26 548.85L571.05 549.66L570.8 550.45L570.53 551.23L570.22 552L569.88 552.75L569.52 553.48L569.13 554.2L568.71 554.9L568.27 555.59L567.8 556.25L567.31 556.9L566.79 557.52L566.25 558.13L565.69 558.71L565.11 559.27L564.5 559.81L563.88 560.33L563.23 560.82L562.57 561.29L561.88 561.73L561.18 562.15L560.46 562.54L559.73 562.9L558.98 563.24L558.21 563.55L557.43 563.82L556.64 564.07L555.83 564.29L555.01 564.47L554.18 564.62L553.34 564.74L552.49 564.83L551.63 564.88L550.76 564.9L107.12 564.9L106.25 564.88L105.39 564.83L104.54 564.74L103.7 564.62L102.87 564.47L102.05 564.29L101.24 564.07L100.45 563.82L99.67 563.55L98.9 563.24L98.15 562.9L97.42 562.54L96.7 562.15L96 561.73L95.31 561.29L94.65 560.82L94 560.33L93.38 559.81L92.77 559.27L92.19 558.71L91.62 558.13L91.08 557.52L90.57 556.9L90.08 556.25L89.61 555.59L89.16 554.9L88.75 554.2L88.36 553.48L88 552.75L87.66 552L87.35 551.23L87.08 550.45L86.83 549.66L86.61 548.85L86.43 548.03L86.28 547.2L86.16 546.36L86.07 545.51L86.02 544.65L86 543.78L86 153.45L86.02 152.58L86.07 151.72L86.16 150.87L86.28 150.03L86.43 149.2L86.61 148.38L86.83 147.57L87.08 146.78L87.35 146L87.66 145.23L88 144.48L88.36 143.75L88.75 143.03L89.16 142.33L89.61 141.64L90.08 140.98L90.57 140.33L91.08 139.71L91.62 139.1L92.19 138.52L92.77 137.96L93.38 137.42L94 136.9L94.65 136.41L95.31 135.94L96 135.5L96.7 135.08L97.42 134.69L98.15 134.33L98.9 133.99L99.67 133.68L100.45 133.41L101.24 133.16L102.05 132.95L102.87 132.76L103.7 132.61L104.54 132.49L105.39 132.4L106.25 132.35L107.12 132.33L550.76 132.33L551.63 132.35L552.49 132.4ZM125.49 153.47L124.72 153.52L123.96 153.59L123.2 153.7L122.46 153.84L121.73 154L121 154.2L120.29 154.42L119.6 154.66L118.91 154.94L118.24 155.24L117.58 155.56L116.94 155.91L116.31 156.29L115.7 156.68L115.1 157.1L114.53 157.54L113.97 158L113.42 158.49L112.9 158.99L112.4 159.51L111.91 160.05L111.45 160.61L111.01 161.19L110.59 161.79L110.2 162.4L109.82 163.03L109.47 163.67L109.15 164.33L108.85 165L108.58 165.68L108.33 166.38L108.11 167.09L107.91 167.81L107.75 168.55L107.61 169.29L107.5 170.04L107.43 170.81L107.38 171.58L107.36 172.36L107.36 521.7L107.38 522.48L107.43 523.25L107.5 524.01L107.61 524.77L107.75 525.51L107.91 526.24L108.11 526.97L108.33 527.68L108.58 528.37L108.85 529.06L109.15 529.73L109.47 530.39L109.82 531.03L110.2 531.66L110.59 532.27L111.01 532.87L111.45 533.44L111.91 534L112.4 534.55L112.9 535.07L113.42 535.57L113.97 536.06L114.53 536.52L115.1 536.96L115.7 537.38L116.31 537.77L116.94 538.15L117.58 538.5L118.24 538.82L118.91 539.12L119.6 539.39L120.29 539.64L121 539.86L121.73 540.06L122.46 540.22L123.2 540.36L123.96 540.47L124.72 540.54L125.49 540.59L126.27 540.61L531.4 540.61L532.18 540.59L532.95 540.54L533.71 540.47L534.47 540.36L535.21 540.22L535.94 540.06L536.66 539.86L537.37 539.64L538.07 539.39L538.76 539.12L539.43 538.82L540.09 538.5L540.73 538.15L541.36 537.77L541.97 537.38L542.56 536.96L543.14 536.52L543.7 536.06L544.24 535.57L544.77 535.07L545.27 534.55L545.75 534L546.21 533.44L546.66 532.87L547.07 532.27L547.47 531.66L547.84 531.03L548.19 530.39L548.52 529.73L548.82 529.06L549.09 528.37L549.34 527.68L549.56 526.97L549.75 526.24L549.92 525.51L550.06 524.77L550.16 524.01L550.24 523.25L550.29 522.48L550.3 521.7L550.3 172.36L550.29 171.58L550.24 170.81L550.16 170.04L550.06 169.29L549.92 168.55L549.75 167.81L549.56 167.09L549.34 166.38L549.09 165.68L548.82 165L548.52 164.33L548.19 163.67L547.84 163.03L547.47 162.4L547.07 161.79L546.66 161.19L546.21 160.61L545.75 160.05L545.27 159.51L544.77 158.99L544.24 158.49L543.7 158L543.14 157.54L542.56 157.1L541.97 156.68L541.36 156.29L540.73 155.91L540.09 155.56L539.43 155.24L538.76 154.94L538.07 154.66L537.37 154.42L536.66 154.2L535.94 154L535.21 153.84L534.47 153.7L533.71 153.59L532.95 153.52L532.18 153.47L531.4 153.45L126.27 153.45L125.49 153.47Z" id="f2fKBVABhy"></path><path d="M227.91 413.04C227.91 435.12 205.35 453.04 177.57 453.04C149.79 453.04 127.23 435.12 127.23 413.04C127.23 390.96 149.79 373.04 177.57 373.04C205.35 373.04 227.91 390.96 227.91 413.04Z" id="eh9mwtTa"></path><path d="M370.34 333.04C370.34 355.12 347.78 373.04 320 373.04C292.22 373.04 269.66 355.12 269.66 333.04C269.66 310.96 292.22 293.04 320 293.04C347.78 293.04 370.34 310.96 370.34 333.04Z" id="d2zXu93fTu"></path><path d="M216.52 251.08C222.81 251.08 227.91 256.18 227.91 262.47C227.91 292.58 227.91 371.54 227.91 401.66C227.91 407.94 222.81 413.04 216.52 413.04C214.24 413.04 218.8 413.04 216.52 413.04C210.23 413.04 205.14 407.94 205.14 401.66C205.14 371.54 205.14 292.58 205.14 262.47C205.14 256.18 210.23 251.08 216.52 251.08C218.8 251.08 214.24 251.08 216.52 251.08Z" id="b3LOvsqPb"></path><path d="M358.95 171.08C365.24 171.08 370.34 176.18 370.34 182.47C370.34 212.58 370.34 291.54 370.34 321.66C370.34 327.94 365.24 333.04 358.95 333.04C356.68 333.04 361.23 333.04 358.95 333.04C352.66 333.04 347.57 327.94 347.57 321.66C347.57 291.54 347.57 212.58 347.57 182.47C347.57 176.18 352.66 171.08 358.95 171.08C361.23 171.08 356.68 171.08 358.95 171.08Z" id="aMsrW6yk8"></path><path d="M369.95 172.89C373.1 178.33 371.24 185.3 365.79 188.44C335.69 205.83 255.23 252.31 225.13 269.71C219.69 272.85 212.72 270.99 209.58 265.54C208.44 263.57 210.72 267.52 209.58 265.54C206.43 260.1 208.3 253.14 213.74 249.99C243.84 232.6 324.3 186.12 354.4 168.73C359.85 165.58 366.81 167.44 369.95 172.89C371.09 174.86 368.82 170.92 369.95 172.89Z" id="akwXCajzj"></path><path d="M512.15 404.57C517.86 404.57 522.49 409.2 522.49 414.91C522.49 416.98 522.49 412.84 522.49 414.91C522.49 420.62 517.86 425.25 512.15 425.25C485.73 425.25 416.81 425.25 390.39 425.25C384.68 425.25 380.05 420.62 380.05 414.91C380.05 412.84 380.05 416.98 380.05 414.91C380.05 409.2 384.68 404.57 390.39 404.57C416.81 404.57 485.73 404.57 512.15 404.57Z" id="a1tlHXFYJ"></path><path d="M451.27 430.42C456.03 430.42 459.89 434.28 459.89 439.04C459.89 454.54 459.89 492.45 459.89 507.95C459.89 512.71 456.03 516.57 451.27 516.57C449.55 516.57 452.99 516.57 451.27 516.57C446.51 516.57 442.66 512.71 442.66 507.95C442.66 492.45 442.66 454.54 442.66 439.04C442.66 434.28 446.51 430.42 451.27 430.42C452.99 430.42 449.55 430.42 451.27 430.42Z" id="f7l1XaSTly"></path><path d="M457.24 436.84C459.03 438.85 458.85 441.92 456.84 443.71C450.3 449.53 434.31 463.77 427.77 469.6C425.76 471.39 422.69 471.21 420.9 469.2C419.4 467.52 418.14 466.1 416.64 464.41C414.85 462.41 415.03 459.33 417.03 457.54C423.58 451.72 439.56 437.48 446.11 431.65C448.11 429.87 451.19 430.04 452.98 432.05C454.48 433.73 455.74 435.15 457.24 436.84Z" id="a3yY6kBLl7"></path><path d="M486.25 464.41C488.03 462.41 487.86 459.33 485.85 457.54C479.31 451.72 463.32 437.48 456.78 431.65C454.77 429.87 451.69 430.04 449.91 432.05C448.41 433.73 447.14 435.15 445.64 436.84C443.86 438.85 444.03 441.92 446.04 443.71C452.58 449.53 468.57 463.77 475.11 469.6C477.12 471.39 480.19 471.21 481.98 469.2C483.48 467.52 484.75 466.1 486.25 464.41Z" id="bfb9PCyhs"></path></defs><g><g><g><use xlink:href="#f2fKBVABhy" opacity="1" fill="#000000" fill-opacity="1"></use></g><g><use xlink:href="#eh9mwtTa" opacity="1" fill="#000000" fill-opacity="1"></use></g><g><use xlink:href="#d2zXu93fTu" opacity="1" fill="#000000" fill-opacity="1"></use></g><g><use xlink:href="#b3LOvsqPb" opacity="1" fill="#000000" fill-opacity="1"></use></g><g><use xlink:href="#aMsrW6yk8" opacity="1" fill="#000000" fill-opacity="1"></use></g><g><use xlink:href="#akwXCajzj" opacity="1" fill="#000000" fill-opacity="1"></use></g><g><use xlink:href="#a1tlHXFYJ" opacity="1" fill="#000000" fill-opacity="1"></use></g><g><use xlink:href="#f7l1XaSTly" opacity="1" fill="#000000" fill-opacity="1"></use></g><g><use xlink:href="#a3yY6kBLl7" opacity="1" fill="#000000" fill-opacity="1"></use></g><g><use xlink:href="#bfb9PCyhs" opacity="1" fill="#000000" fill-opacity="1"></use></g></g></g></svg>